<svg xmlns="http://www.w3.org/2000/svg" viewBox="0 0 39.59 112.35" x="0px" y="0px"  fill="#ddb98a" stroke="#ddb98a"><title>Arrow Filled Angle Left</title><g data-name="Layer 2"><g><path d="M.41,43.31l.08-.13a3.36,3.36,0,0,1,.2-.33L32.59,1.33A3.42,3.42,0,0,1,37.38.71l.88.68a3.41,3.41,0,0,1,.63,4.79L9.1,44.94,38.88,83.71a3.41,3.41,0,0,1-.63,4.79l-.88.68a3.42,3.42,0,0,1-4.79-.63L.69,47a3.36,3.36,0,0,1-.2-.33l-.08-.13a3.34,3.34,0,0,1-.2-.45L.15,46a3.39,3.39,0,0,1-.1-.41c0-.08,0-.17,0-.25a5,5,0,0,1,0-.69c0-.09,0-.17,0-.25a3.39,3.39,0,0,1,.1-.41l.07-.18A3.34,3.34,0,0,1,.41,43.31Z"/></g></g></svg>