<svg xmlns="http://www.w3.org/2000/svg" viewBox="0 0 39.59 112.35" fill="#ddb98a" stroke="#ddb98a"><title>Arrow Filled Angle Right</title><path d="M39.18 46.58l-.08.13a3.36 3.36 0 0 1-.2.33L7 88.55a3.42 3.42 0 0 1-4.79.63l-.88-.68a3.41 3.41 0 0 1-.63-4.79l29.79-38.77L.71 6.17a3.41 3.41 0 0 1 .63-4.79l.88-.67A3.42 3.42 0 0 1 7 1.33l31.9 41.52a3.36 3.36 0 0 1 .2.33l.08.13a3.34 3.34 0 0 1 .2.45l.07.18a3.39 3.39 0 0 1 .1.41v.25a5 5 0 0 1 0 .69v.25a3.39 3.39 0 0 1-.1.41l-.07.18a3.34 3.34 0 0 1-.2.45z" data-name="Layer 2"/></svg>