<?xml version="1.0" encoding="UTF-8"?><!DOCTYPE svg PUBLIC "-//W3C//DTD SVG 1.1//EN" "http://www.w3.org/Graphics/SVG/1.1/DTD/svg11.dtd"><svg xmlns="http://www.w3.org/2000/svg"><symbol id="arrow-dashed" viewBox="0 0 76 20"><title>noun_959577_cc</title><g fill-rule="nonzero" fill="#000"><path d="M40.1 9.2h-6c-.6 0-1 .4-1 1s.4 1 1 1h6c.6 0 1-.4 1-1s-.5-1-1-1zM29.1 9.2h-6c-.6 0-1 .4-1 1s.4 1 1 1h6c.6 0 1-.4 1-1s-.5-1-1-1zM18.1 9.2h-6c-.6 0-1 .4-1 1s.4 1 1 1h6c.6 0 1-.4 1-1s-.5-1-1-1zM7.1 9.2h-6c-.6 0-1 .4-1 1s.4 1 1 1h6c.6 0 1-.4 1-1s-.5-1-1-1zM51.1 9.2h-6c-.6 0-1 .4-1 1s.4 1 1 1h6c.6 0 1-.4 1-1s-.5-1-1-1zM62.1 9.2h-6c-.6 0-1 .4-1 1s.4 1 1 1h6c.6 0 1-.4 1-1s-.5-1-1-1zM67.1 1c-.4-.4-1-.4-1.4 0-.4.4-.4 1 0 1.4l6.8 6.8h-5.4c-.6 0-1 .4-1 1s.4 1 1 1h5.4L65.7 18c-.4.4-.4 1 0 1.4.2.2.5.3.7.3.2 0 .5-.1.7-.3l8.5-8.5c.4-.4.4-1 0-1.4L67.1 1z"/></g></symbol><symbol id="noun_959577_cc" viewBox="0 0 100 125"><path d="M52.1 49.2h-6c-.6 0-1 .4-1 1s.4 1 1 1h6c.6 0 1-.4 1-1s-.5-1-1-1zM41.1 49.2h-6c-.6 0-1 .4-1 1s.4 1 1 1h6c.6 0 1-.4 1-1s-.5-1-1-1zM30.1 49.2h-6c-.6 0-1 .4-1 1s.4 1 1 1h6c.6 0 1-.4 1-1s-.5-1-1-1zM19.1 49.2h-6c-.6 0-1 .4-1 1s.4 1 1 1h6c.6 0 1-.4 1-1s-.5-1-1-1zM63.1 49.2h-6c-.6 0-1 .4-1 1s.4 1 1 1h6c.6 0 1-.4 1-1s-.5-1-1-1zM74.1 49.2h-6c-.6 0-1 .4-1 1s.4 1 1 1h6c.6 0 1-.4 1-1s-.5-1-1-1zM79.1 41c-.4-.4-1-.4-1.4 0s-.4 1 0 1.4l6.8 6.8h-5.4c-.6 0-1 .4-1 1s.4 1 1 1h5.4L77.7 58c-.4.4-.4 1 0 1.4.2.2.5.3.7.3s.5-.1.7-.3l8.5-8.5c.4-.4.4-1 0-1.4L79.1 41z"/></symbol></svg>