<?xml version="1.0" encoding="UTF-8" standalone="no"?>
<svg width="76px" height="20px" viewBox="0 0 76 20" version="1.1" xmlns="http://www.w3.org/2000/svg" xmlns:xlink="http://www.w3.org/1999/xlink">
    <!-- Generator: Sketch 46.2 (44496) - http://www.bohemiancoding.com/sketch -->
    <title>noun_959577_cc</title>
    <desc>Created with Sketch.</desc>
    <defs></defs>
    <g id="Page-1" stroke="none" stroke-width="1" fill="none" fill-rule="evenodd">
        <g id="noun_959577_cc" fill-rule="nonzero" fill="#000000">
            <path d="M40.1,9.2 L34.1,9.2 C33.5,9.2 33.1,9.6 33.1,10.2 C33.1,10.8 33.5,11.2 34.1,11.2 L40.1,11.2 C40.7,11.2 41.1,10.8 41.1,10.2 C41.1,9.6 40.6,9.2 40.1,9.2 Z" id="Shape"></path>
            <path d="M29.1,9.2 L23.1,9.2 C22.5,9.2 22.1,9.6 22.1,10.2 C22.1,10.8 22.5,11.2 23.1,11.2 L29.1,11.2 C29.7,11.2 30.1,10.8 30.1,10.2 C30.1,9.6 29.6,9.2 29.1,9.2 Z" id="Shape"></path>
            <path d="M18.1,9.2 L12.1,9.2 C11.5,9.2 11.1,9.6 11.1,10.2 C11.1,10.8 11.5,11.2 12.1,11.2 L18.1,11.2 C18.7,11.2 19.1,10.8 19.1,10.2 C19.1,9.6 18.6,9.2 18.1,9.2 Z" id="Shape"></path>
            <path d="M7.1,9.2 L1.1,9.2 C0.5,9.2 0.1,9.6 0.1,10.2 C0.1,10.8 0.5,11.2 1.1,11.2 L7.1,11.2 C7.7,11.2 8.1,10.8 8.1,10.2 C8.1,9.6 7.6,9.2 7.1,9.2 Z" id="Shape"></path>
            <path d="M51.1,9.2 L45.1,9.2 C44.5,9.2 44.1,9.6 44.1,10.2 C44.1,10.8 44.5,11.2 45.1,11.2 L51.1,11.2 C51.7,11.2 52.1,10.8 52.1,10.2 C52.1,9.6 51.6,9.2 51.1,9.2 Z" id="Shape"></path>
            <path d="M62.1,9.2 L56.1,9.2 C55.5,9.2 55.1,9.6 55.1,10.2 C55.1,10.8 55.5,11.2 56.1,11.2 L62.1,11.2 C62.7,11.2 63.1,10.8 63.1,10.2 C63.1,9.6 62.6,9.2 62.1,9.2 Z" id="Shape"></path>
            <path d="M67.1,1 C66.7,0.6 66.1,0.6 65.7,1 C65.3,1.4 65.3,2 65.7,2.4 L72.5,9.2 L67.1,9.2 C66.5,9.2 66.1,9.6 66.1,10.2 C66.1,10.8 66.5,11.2 67.1,11.2 L72.5,11.2 L65.7,18 C65.3,18.4 65.3,19 65.7,19.4 C65.9,19.6 66.2,19.7 66.4,19.7 C66.6,19.7 66.9,19.6 67.1,19.4 L75.6,10.9 C76,10.5 76,9.9 75.6,9.5 L67.1,1 Z" id="Shape"></path>
        </g>
    </g>
</svg>