<svg xmlns="http://www.w3.org/2000/svg" xmlns:xlink="http://www.w3.org/1999/xlink" version="1.1" x="0px" y="0px" viewBox="0 0 100 125" style="enable-background:new 0 0 100 100;" xml:space="preserve"><path d="M52.1,49.2h-6c-0.6,0-1,0.4-1,1s0.4,1,1,1h6c0.6,0,1-0.4,1-1S52.6,49.2,52.1,49.2z"/><path d="M41.1,49.2h-6c-0.6,0-1,0.4-1,1s0.4,1,1,1h6c0.6,0,1-0.4,1-1S41.6,49.2,41.1,49.2z"/><path d="M30.1,49.2h-6c-0.6,0-1,0.4-1,1s0.4,1,1,1h6c0.6,0,1-0.4,1-1S30.6,49.2,30.1,49.2z"/><path d="M19.1,49.2h-6c-0.6,0-1,0.4-1,1s0.4,1,1,1h6c0.6,0,1-0.4,1-1S19.6,49.2,19.1,49.2z"/><path d="M63.1,49.2h-6c-0.6,0-1,0.4-1,1s0.4,1,1,1h6c0.6,0,1-0.4,1-1S63.6,49.2,63.1,49.2z"/><path d="M74.1,49.2h-6c-0.6,0-1,0.4-1,1s0.4,1,1,1h6c0.6,0,1-0.4,1-1S74.6,49.2,74.1,49.2z"/><path d="M79.1,41c-0.4-0.4-1-0.4-1.4,0s-0.4,1,0,1.4l6.8,6.8h-5.4c-0.6,0-1,0.4-1,1s0.4,1,1,1h5.4l-6.8,6.8c-0.4,0.4-0.4,1,0,1.4  c0.2,0.2,0.5,0.3,0.7,0.3s0.5-0.1,0.7-0.3l8.5-8.5c0.4-0.4,0.4-1,0-1.4L79.1,41z"/></svg>